<?xml version="1.0" standalone="no"?>
<!DOCTYPE svg PUBLIC "-//W3C//DTD SVG 20010904//EN" >
<svg version="1.0" xmlns="http://www.w3.org/2000/svg"
 width="158.000000pt" height="158.000000pt" viewBox="0 0 158.000000 158.000000"
 preserveAspectRatio="xMidYMid meet">

<g transform="translate(0.000000,158.000000) scale(0.100000,-0.100000)"
fill="#000000" stroke="none">
<path d="M676 1343 c-3 -3 -6 -28 -6 -55 l0 -48 -35 0 -35 0 0 51 c0 43 -3 50
-17 47 -13 -2 -19 -16 -23 -48 -4 -40 -8 -45 -32 -48 -26 -3 -27 -1 -30 45 -2
36 -7 49 -20 51 -16 3 -18 -5 -18 -61 l0 -65 -61 -51 c-57 -48 -64 -51 -115
-51 -41 0 -54 -4 -54 -15 0 -11 12 -15 51 -15 l50 0 -3 -32 c-3 -32 -5 -33
-50 -36 -34 -2 -48 -7 -48 -18 0 -10 13 -14 50 -14 l50 0 0 -34 c0 -34 -1 -35
-48 -38 -34 -2 -47 -7 -47 -18 0 -11 13 -16 48 -18 48 -3 48 -4 45 -35 -3 -31
-5 -32 -50 -35 -34 -2 -48 -7 -48 -18 0 -10 13 -14 50 -14 l50 0 0 -34 c0 -34
-1 -35 -47 -38 -66 -4 -70 -28 -4 -28 l51 0 0 -35 0 -35 -51 0 c-43 0 -50 -3
-47 -18 2 -13 15 -18 51 -20 44 -3 47 -5 47 -32 0 -27 -2 -29 -47 -32 -35 -2
-48 -7 -48 -18 0 -11 15 -16 60 -18 54 -3 64 -7 112 -48 l53 -46 0 -63 c0 -63
14 -91 31 -64 5 8 9 38 9 67 0 51 0 52 30 52 30 0 30 -1 30 -52 0 -29 4 -59 9
-67 17 -26 31 1 31 60 l0 59 35 0 35 0 0 -65 c0 -51 3 -65 15 -65 12 0 15 14
15 65 l0 65 35 0 34 0 3 -62 c4 -78 28 -95 28 -20 0 69 7 82 41 82 28 0 29 -1
29 -52 0 -29 4 -59 9 -67 17 -26 31 1 31 60 l0 59 35 0 34 0 3 -63 c4 -80 22
-80 26 1 l3 62 34 0 35 0 0 -65 c0 -51 3 -65 15 -65 12 0 15 13 15 58 0 61 10
82 63 139 28 30 36 33 91 33 34 0 67 4 75 9 26 17 -1 31 -60 31 -59 0 -59 0
-59 30 0 29 1 29 63 32 47 2 62 7 62 18 0 11 -15 16 -63 18 l-63 3 3 32 c3 31
4 32 61 37 75 7 78 24 5 28 l-58 3 0 34 0 34 57 3 c78 4 83 26 6 30 -57 3 -58
3 -61 36 l-3 32 54 0 c58 0 69 4 60 26 -3 10 -22 14 -60 14 l-54 0 3 33 c3 32
4 32 61 35 74 4 73 26 -1 30 -52 3 -52 3 -52 37 0 34 0 34 50 37 72 4 62 22
-14 26 -63 3 -65 4 -115 57 -50 53 -51 55 -51 114 0 48 -3 61 -15 61 -11 0
-15 -12 -15 -50 l0 -50 -35 0 -35 0 0 50 c0 37 -4 50 -14 50 -11 0 -16 -14
-18 -47 -3 -46 -4 -48 -35 -51 -33 -3 -33 -3 -33 41 0 27 -6 49 -15 57 -18 15
-23 5 -27 -55 -3 -34 -7 -41 -27 -43 -29 -5 -41 12 -41 61 0 26 -4 37 -15 37
-11 0 -15 -12 -15 -50 l0 -50 -35 0 -35 0 0 49 c0 47 -9 68 -24 54z"/>
</g>
</svg>
