<?xml version="1.0" encoding="utf-8"?>
<svg viewBox="0 0 500 500" xmlns="http://www.w3.org/2000/svg">
  <g transform="matrix(0.1, 0, 0, -0.1, 164.733093, 329.428101)" fill="#000000" stroke="none">
    <path d="M 495.381 2902.086 C 484.862 2890.978 474.338 2798.415 474.338 2698.445 L 474.338 2520.72 L 351.598 2520.72 L 228.857 2520.72 L 228.857 2709.554 C 228.857 2868.764 218.336 2894.68 169.239 2883.575 C 123.65 2876.165 102.609 2824.333 88.583 2705.852 C 74.555 2557.746 60.527 2539.232 -23.639 2528.122 C -114.818 2517.017 -118.323 2524.422 -128.842 2694.743 C -135.858 2828.038 -153.392 2876.165 -198.982 2883.575 C -255.092 2894.68 -262.106 2865.062 -262.106 2657.715 L -262.106 2417.047 L -476.025 2228.212 C -675.916 2050.49 -700.466 2039.383 -879.312 2039.383 C -1023.094 2039.383 -1068.685 2024.57 -1068.685 1983.84 C -1068.685 1943.11 -1026.603 1928.301 -889.833 1928.301 L -714.493 1928.301 L -725.012 1809.815 C -735.535 1691.332 -742.546 1687.632 -900.354 1676.523 C -1019.588 1669.118 -1068.685 1650.607 -1068.685 1609.881 C -1068.685 1572.852 -1023.094 1558.042 -893.341 1558.042 L -717.997 1558.042 L -717.997 1432.155 C -717.997 1306.267 -721.506 1302.563 -886.326 1291.453 C -1005.56 1284.049 -1051.152 1265.536 -1051.152 1224.81 C -1051.152 1184.081 -1005.56 1165.565 -882.819 1158.16 C -714.493 1147.053 -714.493 1143.35 -725.012 1028.571 C -735.535 913.786 -742.546 910.086 -900.354 898.979 C -1019.588 891.574 -1068.685 873.061 -1068.685 832.332 C -1068.685 795.305 -1023.094 780.495 -893.341 780.495 L -717.997 780.495 L -717.997 654.607 C -717.997 528.717 -721.506 525.019 -882.819 513.907 C -1114.275 499.101 -1128.302 410.233 -896.847 410.233 L -717.997 410.233 L -717.997 280.64 L -717.997 151.048 L -896.847 151.048 C -1047.643 151.048 -1072.193 139.942 -1061.673 84.405 C -1054.656 36.269 -1009.068 17.753 -882.819 10.353 C -728.522 -0.759 -717.997 -8.164 -717.997 -108.134 C -717.997 -208.103 -725.012 -215.507 -882.819 -226.616 C -1005.56 -234.022 -1051.152 -252.537 -1051.152 -293.262 C -1051.152 -333.99 -998.544 -352.505 -840.738 -359.908 C -651.367 -371.017 -616.301 -385.83 -447.969 -537.638 L -262.106 -707.956 L -262.106 -941.222 C -262.106 -1174.486 -213.01 -1278.157 -153.392 -1178.186 C -135.858 -1148.567 -121.83 -1037.487 -121.83 -930.112 C -121.83 -741.278 -121.83 -737.574 -16.624 -737.574 C 88.583 -737.574 88.583 -741.278 88.583 -930.112 C 88.583 -1037.487 102.61 -1148.567 120.143 -1178.186 C 179.759 -1274.454 228.857 -1174.486 228.857 -956.03 L 228.857 -737.574 L 351.598 -737.574 L 474.338 -737.574 L 474.338 -978.246 C 474.338 -1167.079 484.862 -1218.917 526.942 -1218.917 C 569.023 -1218.917 579.545 -1167.079 579.545 -978.246 L 579.545 -737.574 L 702.285 -737.574 L 821.518 -737.574 L 832.041 -967.136 C 846.069 -1255.943 930.232 -1318.885 930.232 -1041.189 C 930.232 -785.711 954.78 -737.574 1074.014 -737.574 C 1172.206 -737.574 1175.715 -741.278 1175.715 -930.112 C 1175.715 -1037.487 1189.74 -1148.567 1207.276 -1178.186 C 1266.894 -1274.454 1315.988 -1174.486 1315.988 -956.03 L 1315.988 -737.574 L 1438.729 -737.574 L 1557.963 -737.574 L 1568.481 -970.842 C 1582.51 -1267.048 1645.636 -1267.048 1659.66 -967.136 L 1670.18 -737.574 L 1789.418 -737.574 L 1912.158 -737.574 L 1912.158 -978.246 C 1912.158 -1167.079 1922.679 -1218.917 1964.761 -1218.917 C 2006.844 -1218.917 2017.364 -1170.782 2017.364 -1004.164 C 2017.364 -778.305 2052.431 -700.549 2238.296 -489.501 C 2336.493 -378.423 2364.545 -367.315 2557.423 -367.315 C 2676.656 -367.315 2792.386 -352.505 2820.44 -333.99 C 2911.618 -271.047 2816.931 -219.21 2610.027 -219.21 C 2403.119 -219.21 2403.119 -219.21 2403.119 -108.134 C 2403.119 -0.759 2406.628 -0.759 2624.053 10.353 C 2788.876 17.753 2841.479 36.269 2841.479 76.996 C 2841.479 117.727 2788.876 136.24 2620.549 143.644 L 2399.616 154.755 L 2410.136 273.238 C 2420.656 388.019 2424.164 391.719 2624.053 410.233 C 2887.068 436.154 2897.589 499.101 2641.588 513.907 L 2438.188 525.019 L 2438.188 650.906 L 2438.188 776.794 L 2638.083 787.9 C 2911.618 802.715 2929.152 884.171 2659.123 898.979 C 2459.233 910.086 2455.723 910.086 2445.205 1032.273 L 2434.684 1150.756 L 2624.053 1150.756 C 2827.455 1150.756 2866.028 1165.565 2834.466 1247.023 C 2823.946 1284.049 2757.316 1298.861 2624.053 1298.861 L 2434.684 1298.861 L 2445.205 1421.046 C 2455.723 1539.529 2459.233 1539.529 2659.123 1550.636 C 2918.631 1565.448 2915.128 1646.905 2655.617 1661.718 C 2473.257 1672.822 2473.257 1672.822 2473.257 1798.714 C 2473.257 1924.601 2473.257 1924.601 2648.603 1935.706 C 2901.097 1950.519 2866.028 2017.165 2599.505 2031.976 C 2378.574 2043.083 2371.558 2046.787 2196.213 2243.021 C 2020.872 2439.263 2017.364 2446.669 2017.364 2665.121 C 2017.364 2842.846 2006.844 2890.978 1964.761 2890.978 C 1926.185 2890.978 1912.158 2846.548 1912.158 2705.852 L 1912.158 2520.72 L 1789.418 2520.72 L 1666.677 2520.72 L 1666.677 2705.852 C 1666.677 2842.846 1652.65 2890.978 1617.581 2890.978 C 1579.006 2890.978 1561.468 2839.146 1554.455 2716.956 C 1543.935 2546.638 1540.429 2539.232 1431.715 2528.122 C 1315.988 2517.017 1315.988 2517.017 1315.988 2679.929 C 1315.988 2779.898 1294.947 2861.359 1263.385 2890.978 C 1200.261 2946.518 1182.727 2909.491 1168.7 2687.339 C 1158.177 2561.448 1144.153 2535.53 1074.014 2528.122 C 972.314 2509.611 930.232 2572.557 930.232 2753.981 C 930.232 2850.251 916.205 2890.978 877.626 2890.978 C 839.053 2890.978 825.025 2846.548 825.025 2705.852 L 825.025 2520.72 L 702.285 2520.72 L 579.545 2520.72 L 579.545 2702.147 C 579.545 2876.165 547.984 2953.925 495.381 2902.086 Z" style="fill: rgb(209, 108, 0);" transform="matrix(0.999975, -0.007055, 0.007055, 0.999975, -5.968289, 6.322927)"/>
  </g>
</svg>